<svg id="Ebene_1" data-name="Ebene 1" xmlns="http://www.w3.org/2000/svg" xmlns:xlink="http://www.w3.org/1999/xlink" viewBox="0 0 450.84 32.5"><defs><style>.cls-1{fill:#fff;}.cls-2{mask:url(#mask);}.cls-3{font-size:32.4px;font-family:OpenSans-Regular, Open Sans;}</style><mask id="mask" x="-1.21" y="0" width="309.5" height="32.5" maskUnits="userSpaceOnUse"><g id="a"><path id="path9" class="cls-1" d="M58.09,23.3a3.22,3.22,0,0,1-1.5,2.1,3.17,3.17,0,0,1-2.3.9h-3a2,2,0,0,1-1.8-1,3,3,0,0,1-.4-1,2,2,0,0,1,0-1.1l3.2-12.1h-8.8l-3.2,12.2a5.06,5.06,0,0,0,.7,4.3,4.1,4.1,0,0,0,3.7,1.8h14.7A7.75,7.75,0,0,0,64,27.6a8.49,8.49,0,0,0,2.9-4.3l3.2-12.1h-8.9Z"/><path id="path11" class="cls-1" d="M95.79,11.1H78.09l-.8,3.1h11.8a3.55,3.55,0,0,1,1,.2,2.34,2.34,0,0,1,.7.7,3,3,0,0,1,.4,1,2,2,0,0,1,0,1.1H79.49a7.28,7.28,0,0,0-4.6,1.9A7.84,7.84,0,0,0,72,23.3a5.11,5.11,0,0,0,.7,4.3,4.1,4.1,0,0,0,3.7,1.8h14.7a7.75,7.75,0,0,0,4.6-1.8,8.49,8.49,0,0,0,2.9-4.3l1.6-6.1a5.2,5.2,0,0,0-.7-4.2A4.69,4.69,0,0,0,95.79,11.1Zm-6.2,12.2a3.45,3.45,0,0,1-1.4,2.1,3.17,3.17,0,0,1-2.3.9h-3a1.93,1.93,0,0,1-1-.3,1.58,1.58,0,0,1-.7-.7,3,3,0,0,1-.4-1,2,2,0,0,1,0-1.1,2.38,2.38,0,0,1,.6-1.1,9,9,0,0,1,.9-1,4.13,4.13,0,0,1,1.1-.7,5.27,5.27,0,0,1,1.2-.3h5.9Z"/><path id="path13" class="cls-1" d="M117.09,5.1h-8.8l-4.8,18.2a5.06,5.06,0,0,0,.7,4.3,4,4,0,0,0,3.6,1.8h14.7l.8-3h-8.9a1.93,1.93,0,0,1-1-.3,1.58,1.58,0,0,1-.7-.7,3,3,0,0,1-.4-1,2,2,0,0,1,0-1.1l2.4-9.1h8.8l.8-3.1h-8.8Z"/><path id="path15" class="cls-1" d="M142.19,5.1h-8.8l-4.8,18.2a5.06,5.06,0,0,0,.7,4.3,4,4,0,0,0,3.6,1.8h14.7l.8-3h-8.9a2,2,0,0,1-1.8-1,3,3,0,0,1-.4-1,2,2,0,0,1,0-1.1l2.4-9.1h8.8l.8-3.1h-8.8Z"/><path id="path17" class="cls-1" d="M158.79,13a7.84,7.84,0,0,0-2.9,4.2l-3.1,12.1h8.8l3.2-12.1a3.7,3.7,0,0,1,.5-1.1,4.3,4.3,0,0,1,.9-1,4.13,4.13,0,0,1,1.1-.7,5,5,0,0,1,1.2-.2h8.9l.8-3.1h-14.9A7.25,7.25,0,0,0,158.79,13Z"/><path id="path19" class="cls-1" d="M206.79,13a4.24,4.24,0,0,0-3.6-1.9h-14.8a7.06,7.06,0,0,0-4.6,1.9,7.51,7.51,0,0,0-2.8,4.2l-1.6,6.1a5.06,5.06,0,0,0,.7,4.3,4,4,0,0,0,3.6,1.8h14.7a7.75,7.75,0,0,0,4.6-1.8,8.49,8.49,0,0,0,2.9-4.3l1.6-6.1a4.84,4.84,0,0,0-.7-4.2Zm-8.1,4.2-1.6,6.1a4.35,4.35,0,0,1-1.4,2.1,3.17,3.17,0,0,1-2.3.9h-3a1.69,1.69,0,0,1-1-.3,2.7,2.7,0,0,1-.8-.7,3,3,0,0,1-.4-1,2,2,0,0,1,0-1.1l1.6-6.1a3.7,3.7,0,0,1,.5-1.1,9,9,0,0,1,.9-1,4.13,4.13,0,0,1,1.1-.7,5,5,0,0,1,1.2-.2h3a2.14,2.14,0,0,1,1.8.9A3.48,3.48,0,0,1,198.69,17.2Z"/><path id="path21" class="cls-1" d="M33.19,5.2H14.59c-4.1.4-6.8,2.1-8.1,5.2L2.79,24.1c-.3,2.9,1.5,4.7,5.3,5.3h18.6c4.1-.6,6.9-2.4,8.1-5.3l3.7-13.8C38.89,7.3,37.09,5.6,33.19,5.2ZM31,13.3,28.89,21l-.3.9-4.3-4.3-4.3.1,6.3,6.3a4.4,4.4,0,0,1-1.6.2H13c-2.3,0-3.2-1-2.6-3.1l2.1-7.7c.5-1.9,1.9-2.9,4.1-2.9h12C30.69,10.4,31.49,11.4,31,13.3Z"/><path id="path23" class="cls-1" d="M240.39,14.2a7.84,7.84,0,0,1-2.9,4.2,7.17,7.17,0,0,1-4.6,1.8h-11.8l-2.4,9.1h-8.8l6.3-24.2h20.6a4.28,4.28,0,0,1,3.6,1.8,4.54,4.54,0,0,1,.7,4.2Zm-8-3.1A2.29,2.29,0,0,0,232,9a2.7,2.7,0,0,0-.8-.7,1.69,1.69,0,0,0-1-.3h-5.9l-2.4,9.1h5.9a3.52,3.52,0,0,0,2.3-.9,3.75,3.75,0,0,0,1.4-2.1Z"/><path id="path25" class="cls-1" d="M269,23.2a7.84,7.84,0,0,1-2.9,4.2,7.17,7.17,0,0,1-4.6,1.8h-14.7a4,4,0,0,1-3.6-1.8,5,5,0,0,1-.7-4.3l1.6-6.1a8.69,8.69,0,0,1,2.8-4.2,7.28,7.28,0,0,1,4.6-1.9h14.7a4.37,4.37,0,0,1,3.6,1.9,4.49,4.49,0,0,1,.7,4.2Zm-7.2-6a2.58,2.58,0,0,0-.3-2.1,2.14,2.14,0,0,0-1.8-.9h-3a5,5,0,0,0-1.2.2,10.91,10.91,0,0,0-1.1.6,2.84,2.84,0,0,0-.9,1,3.7,3.7,0,0,0-.5,1.1l-1.6,6.1a2,2,0,0,0,0,1.1,3,3,0,0,0,.4,1,2.34,2.34,0,0,0,.7.7,1.69,1.69,0,0,0,1,.3h3a4.14,4.14,0,0,0,2.3-.9,4.53,4.53,0,0,0,1.5-2.1Z"/><path id="path27" class="cls-1" d="M278.19,29.3a4,4,0,0,1-3.6-1.8,5,5,0,0,1-.7-4.3l1.6-6.1a8.69,8.69,0,0,1,2.8-4.2,7.28,7.28,0,0,1,4.6-1.9h11.7l1.6-6H305l-6.3,24.2Zm15.6-15.1h-5.9a5,5,0,0,0-1.2.2,10.91,10.91,0,0,0-1.1.6,2.84,2.84,0,0,0-.9,1,3.7,3.7,0,0,0-.5,1.1l-1.6,6.1a2,2,0,0,0,0,1.1,3,3,0,0,0,.4,1,2.34,2.34,0,0,0,.7.7,1.69,1.69,0,0,0,1,.3h5.9Z"/></g></mask></defs><g class="cls-2"><g id="g32"><rect id="rect30" x="-1.21" width="309.5" height="32.5"/></g></g><text class="cls-3" transform="translate(313.35 28.18)">M1</text></svg>